# xmcd CD database file
#
# Track frame offsets:
#	182
#	7885
#	21075
#	29030
#	39915
#	50875
#	60600
#	70577
#	80455
#	89430
#
# Disc length: 1337 seconds
#
# Revision: 0
# Processed by: cddbd v1.5.2PL0 Copyright (c) Steve Scherf et al.
# Submitted via: CDex 1.70beta2
#
DISCID=7905370a
DTITLE=Various Artist - Johnny Cash and Jerry Lee Lewis Sing Hank Williams
DYEAR=1971
DGENRE=Country
TTITLE0=Johnny Cash - Hey Good Looking
TTITLE1=Jerry Lee Lewis - I Could Never Be Ashamed Of You
TTITLE2=Johnny Cash - I Can't Help It
TTITLE3=Johnny Cash - I Heard That Lonesome Whistle
TTITLE4=Johnny Cash - Cold, Cold Heart
TTITLE5=Jerry Lee Lewis - Lovesick Blues
TTITLE6=Johnny Cash - You Win Again
TTITLE7=Jerry Lee Lewis - Your Cheating Heart
TTITLE8=Jerry Lee Lewis - Jambalaya
TTITLE9=Jerry Lee Lewis - Settin' The Woods On Fire
EXTD=YEAR: 1971
EXTT0=
EXTT1=
EXTT2=
EXTT3=
EXTT4=
EXTT5=
EXTT6=
EXTT7=
EXTT8=
EXTT9=
PLAYORDER=
